# xmcd
#
# Track frame offsets: 
#        150
#        10125
#        23502
#        36547
#        50617
#        61850
#        74165
#        83905
#        101295
#        115285
#        126852
#        140710
#        158885
#
# Disc length: 2287 seconds
#
# Revision: 3
# Processed by: cddbd v1.5.2PL0 Copyright (c) Steve Scherf et al.
# Submitted via: ExactAudioCopyFreeDBPlugin 1.0
#
DISCID=b408ed0d
DTITLE=Anson Funderburgh and The Rockets - She Knocks Me Out!
DYEAR=1983
DGENRE=Blues
TTITLE0=She Knocks Me Out
TTITLE1=Howlin' For My Darlin'
TTITLE2=A Woman
TTITLE3=You Know My Love
TTITLE4=Your Funeral And My Trial
TTITLE5=Look What'cha Done
TTITLE6=Two For Pete
TTITLE7=Love Me With A Feeling
TTITLE8=Gonna Keep What I've Got
TTITLE9=The Blues Seem To Follow Me
TTITLE10=Is There Something Inside You ?
TTITLE11=Goin' Away
TTITLE12=Bark!!
EXTD=
EXTT0=
EXTT1=
EXTT2=
EXTT3=
EXTT4=
EXTT5=
EXTT6=
EXTT7=
EXTT8=
EXTT9=
EXTT10=
EXTT11=
EXTT12=
PLAYORDER=
